<svg id="svg" xmlns="http://www.w3.org/2000/svg" xmlns:xlink="http://www.w3.org/1999/xlink" width="400" height="421.0526315789474" viewBox="0, 0, 400,421.0526315789474"><g id="svgg"><path id="path0" d="M1.008 0.997 C -1.522 3.527,0.011 27.209,3.096 33.256 C 9.210 45.240,7.606 45.042,98.893 45.080 L 178.989 45.113 178.592 93.609 L 178.195 142.105 114.217 142.857 C 43.746 143.685,44.952 143.516,39.913 153.261 C 36.287 160.273,4.144 336.254,4.927 344.807 C 5.747 353.767,11.499 360.363,20.622 362.807 L 26.959 364.505 27.389 377.365 L 27.820 390.226 44.639 390.650 L 61.459 391.074 70.203 377.499 L 78.947 363.924 200.000 363.936 L 321.053 363.947 329.635 377.462 L 338.218 390.977 354.662 390.977 C 373.739 390.977,372.932 391.673,372.932 375.232 L 372.932 364.244 378.043 363.286 C 387.930 361.431,395.489 352.354,395.489 342.336 C 395.489 333.947,362.471 157.871,360.003 153.098 C 354.683 142.810,355.117 142.869,284.586 142.863 L 221.053 142.857 221.053 93.985 L 221.053 45.113 301.029 45.113 C 379.771 45.113,381.108 45.063,387.678 41.882 C 397.139 37.303,400.270 29.816,399.685 13.179 L 399.248 0.752 200.632 0.370 C 91.393 0.161,1.562 0.443,1.008 0.997 M393.985 15.086 C 393.985 27.321,390.973 34.114,384.313 36.896 C 376.517 40.154,23.631 40.215,15.841 36.961 C 8.886 34.055,6.015 27.890,6.015 15.864 L 6.015 6.015 200.000 6.015 L 393.985 6.015 393.985 15.086 M214.682 93.609 L 214.286 142.105 200.000 142.105 L 185.714 142.105 185.318 93.609 L 184.921 45.113 200.000 45.113 L 215.079 45.113 214.682 93.609 M351.734 153.008 C 356.373 157.647,354.241 147.714,376.614 268.897 C 391.267 348.260,390.998 345.615,385.086 352.232 L 380.698 357.143 200.000 357.143 L 19.302 357.143 14.914 352.232 C 12.089 349.070,10.526 345.680,10.526 342.712 C 10.526 338.078,40.982 170.993,43.720 160.607 C 47.073 147.887,33.929 148.872,200.318 148.872 L 347.600 148.872 351.734 153.008 M78.724 174.612 C 61.375 179.502,59.562 204.940,76.043 212.231 C 95.340 220.767,112.698 200.002,101.083 182.276 C 96.909 175.906,86.633 172.383,78.724 174.612 M186.466 173.840 C 123.040 185.604,98.283 263.696,143.609 309.022 C 193.896 359.309,279.699 323.434,279.699 252.122 C 279.699 204.667,232.758 165.254,186.466 173.840 M309.023 175.208 C 293.911 180.530,290.273 199.461,302.400 209.665 C 320.967 225.288,346.719 199.533,330.734 181.327 C 326.570 176.584,324.540 175.424,317.293 173.643 C 316.053 173.339,312.331 174.043,309.023 175.208 M213.705 180.449 C 271.008 191.075,293.209 263.259,251.861 304.511 C 211.745 344.534,144.191 326.936,129.106 272.533 C 114.624 220.308,160.334 170.553,213.705 180.449 M92.783 182.711 C 97.063 185.709,99.749 193.981,97.962 198.656 C 91.999 214.252,70.677 210.038,70.677 193.264 C 70.677 182.632,83.756 176.388,92.783 182.711 M325.359 184.416 C 332.811 191.868,329.832 204.125,319.761 207.449 C 310.239 210.591,301.572 204.042,301.572 193.705 C 301.572 181.583,316.642 175.698,325.359 184.416 M192.888 193.268 C 189.108 195.915,145.865 279.258,145.865 283.895 C 145.865 285.596,147.617 289.069,149.758 291.614 L 153.651 296.241 199.872 296.241 C 265.051 296.241,263.287 299.249,233.031 239.700 C 207.873 190.185,203.881 185.568,192.888 193.268 M204.816 199.624 C 209.813 205.404,247.948 282.912,247.026 285.413 C 245.342 289.982,243.396 290.179,199.731 290.203 C 155.365 290.226,151.880 289.778,151.880 284.047 C 151.880 281.947,192.518 202.756,195.203 199.624 C 196.443 198.177,198.602 196.992,200.000 196.992 C 201.398 196.992,203.565 198.177,204.816 199.624 M193.985 219.549 C 190.868 222.666,189.349 255.387,192.128 259.549 C 194.586 263.230,199.861 264.841,203.383 262.986 C 214.048 257.370,211.073 216.541,200.000 216.541 C 198.346 216.541,195.639 217.895,193.985 219.549 M202.681 240.348 C 203.086 256.370,202.965 257.143,200.049 257.143 C 196.945 257.143,195.099 226.455,198.026 223.528 C 201.087 220.467,202.287 224.803,202.681 240.348 M193.345 270.553 C 189.835 274.432,190.840 279.488,195.865 283.225 L 200.000 286.302 204.135 283.225 C 211.685 277.610,209.042 267.669,200.000 267.669 C 197.775 267.669,194.781 268.967,193.345 270.553 M202.632 276.316 C 202.999 277.418,201.963 278.195,200.125 278.195 C 198.278 278.195,196.992 277.225,196.992 275.830 C 196.992 273.066,201.685 273.470,202.632 276.316 M60.536 294.202 C 50.435 299.182,46.583 313.040,52.571 322.859 C 60.797 336.350,82.218 335.051,88.215 320.698 C 95.617 302.982,77.637 285.772,60.536 294.202 M320.393 294.477 C 310.555 299.754,306.893 313.300,312.721 322.859 C 320.409 335.468,339.741 335.468,347.429 322.859 C 355.396 309.794,345.325 291.729,330.075 291.729 C 327.568 291.729,323.211 292.966,320.393 294.477 M76.555 299.929 C 78.878 301.131,81.615 304.131,82.636 306.597 C 88.651 321.119,71.120 333.005,60.035 321.920 C 48.330 310.215,61.792 292.295,76.555 299.929 M335.813 299.424 C 345.201 304.225,347.143 314.743,339.965 321.920 C 328.313 333.572,309.909 319.825,317.888 305.429 C 321.568 298.790,329.425 296.157,335.813 299.424 M70.677 364.575 C 70.677 364.941,67.878 369.703,64.458 375.159 L 58.239 385.077 46.037 384.644 L 33.835 384.211 33.390 374.060 L 32.945 363.910 51.811 363.910 C 62.187 363.910,70.677 364.209,70.677 364.575 M365.414 374.436 L 365.414 384.962 353.604 384.962 L 341.795 384.962 334.795 374.436 L 327.796 363.910 346.605 363.910 L 365.414 363.910 365.414 374.436 " stroke="none" fill="#000000" fill-rule="evenodd"></path></g></svg>